<svg xmlns="http://www.w3.org/2000/svg" xmlns:xlink="http://www.w3.org/1999/xlink" xmlns:inkscape="http://www.inkscape.org/namespaces/inkscape" version="1.1" width="1991.67" height="263.749" viewBox="0 0 1991.67 263.749">
<defs>
<clipPath id="clip_1">
<path transform="matrix(1,0,0,-1,0,263.749)" d="M0 263.749H1991.667V0H0Z"/>
</clipPath>
<clipPath id="clip_2">
<path transform="matrix(1,0,0,-1,0,263.749)" d="M0 263.749H1991.667V0H0Z"/>
</clipPath>
</defs>
<g>
<g inkscape:groupmode="layer" inkscape:label="Camada 1">
<g clip-path="url(#clip_1)">
<path transform="matrix(1,0,0,-1,355.6704,219.03569)" d="M0 0C13.446 0 24.74 3.294 33.875 9.897 43.009 16.492 49.986 26.007 54.809 38.442 59.626 50.872 62.041 66.096 62.041 84.115 62.041 102.892 59.567 118.877 54.619 132.073 49.67 145.265 42.498 155.351 33.114 162.333 23.723 169.308 12.305 172.8-1.142 172.8-14.339 172.8-25.567 169.434-34.826 162.713-44.092 155.988-51.192 146.282-56.141 133.597-61.089 120.904-63.563 105.175-63.563 86.4-63.563 72.698-62.106 60.452-59.186 49.67-56.271 38.883-52.144 29.812-46.816 22.456-41.487 15.094-34.892 9.515-27.024 5.708-19.162 1.903-10.151 0 0 0M-1.522-43.771C-19.792-43.771-36.159-40.916-50.622-35.208-65.086-29.497-77.455-21.125-87.732-10.087-98.009 .952-105.877 14.522-111.331 30.64-116.79 46.75-119.514 65.211-119.514 86.019-119.514 115.707-114.315 140.257-103.909 159.669-93.507 179.081-79.234 193.668-61.089 203.44-42.95 213.205-22.456 218.094 .38 218.094 18.139 218.094 34.256 215.238 48.719 209.53 63.182 203.82 75.553 195.447 85.829 184.408 96.106 173.371 104.034 159.669 109.618 143.303 115.196 126.935 117.992 108.219 117.992 87.161 117.992 65.59 115.196 46.686 109.618 30.449 104.034 14.207 95.975 .57 85.448-10.467 74.916-21.504 62.291-29.82 47.577-35.397 32.858-40.975 16.491-43.771-1.522-43.771" fill="#f3f3f1"/>
<path transform="matrix(1,0,0,-1,0,263.749)" d="M741.807 48.354H898.857V0H741.807ZM729.818 263.749H787.364V0H729.818Z" fill="#f3f3f1"/>
<path transform="matrix(1,0,0,-1,0,263.749)" d="M969.41 96.229H1126.913V53.615999H969.41ZM918.658 0 1008.973 263.749H1092.892L1183.207 0H1120.866L1054.129 218.193H1048.135L980.999 0Z" fill="#f3f3f1"/>
<path transform="matrix(1,0,0,-1,1203.0695,263.749)" d="M0 0V263.749H75.129L194.616 77.127H199.011L195.415 263.749H251.362V0H183.426L57.146 195.415H52.751L56.347 0Z" fill="#f3f3f1"/>
<path transform="matrix(1,0,0,-1,0,263.749)" d="M1527.036 96.251H1689.09V52.152H1527.036ZM1476.284 0 1566.599 263.749H1650.518L1740.832 0H1678.491L1611.755 218.193H1605.761L1538.625 0Z" fill="#f3f3f1"/>
<path transform="matrix(1,0,0,-1,1820.2296,129.07709)" d="M0 0H45.558C63.67 0 77.658 3.458 87.518 10.391 97.37 17.315 102.304 28.105 102.304 42.759 102.304 57.144 97.708 67.735 88.517 74.53 79.326 81.322 65.539 84.718 47.156 84.718H0ZM-57.545-134.672V129.077H49.553C63.939 129.077 76.989 127.94 88.715 125.681 100.436 123.414 110.826 120.148 119.886 115.889 128.941 111.626 136.602 106.361 142.864 100.105 149.122 93.842 153.853 86.649 157.051 78.525 160.247 70.395 161.847 61.404 161.847 51.551 161.847 42.222 160.38 33.768 157.45 26.174 154.516 18.583 150.121 11.989 144.264 6.394 138.4 .799 131.075-3.797 122.285-7.393 113.492-10.99 83.353-13.456 71.633-14.786V-20.78C85.22-22.117 115.953-25.245 124.083-30.171 132.205-35.105 138.601-41.697 143.264-49.953 147.922-58.214 151.987-68.472 155.453-80.723L171.437-134.672H107.897L95.51-84.72C93.113-74.067 89.646-65.737 85.119-59.744 80.585-53.748 74.86-49.491 67.936-46.956 61.005-44.427 52.613-43.159 42.761-43.159H0V-134.672Z" fill="#f3f3f1"/>
</g>
<g clip-path="url(#clip_2)">
<path transform="matrix(1,0,0,-1,701.5469,53.350099)" d="M0 0C-5.064 11.851-12.455 21.711-22.177 29.573-31.906 37.428-43.627 43.359-57.343 47.354-71.071 51.351-86.454 53.35-103.5 53.35H-151.055-168.238-208.601V-90.726L-151.055-57.054V8.991H-105.101C-86.454 8.991-72.668 4.796-63.738-3.596-54.817-11.989-50.35-24.176-50.35-40.162-50.35-58.282-55.149-71.269-64.738-79.124-74.327-86.985-88.715-90.914-107.897-90.914H-151.055V-90.873H-208.601V-210.399H-151.055V-136.069H-115.889C-88.715-136.069-66.003-132.473-47.754-125.28-29.509-118.087-15.723-107.496-6.391-93.511 2.928-79.524 7.594-62.278 7.594-41.759 7.594-25.776 5.06-11.857 0 0" fill="#f3f3f1"/>
<path transform="matrix(1,0,0,-1,175.7688,174.7233)" d="M0 0C-.608-1.963-1.251-3.885-1.964-5.725-6.772-18.124-13.728-27.611-22.836-34.186-31.944-40.769-43.204-44.054-56.61-44.054-66.731-44.054-75.715-42.156-83.553-38.362-91.399-34.567-97.974-29.004-103.287-21.665-108.6-14.33-112.714-5.286-115.62 5.469-118.532 16.219-119.984 28.429-119.984 42.09-119.984 60.809-117.518 76.492-112.584 89.147-107.651 101.794-100.571 111.471-91.333 118.176-82.101 124.877-70.906 128.233-57.748 128.233-44.342 128.233-32.957 124.751-23.595 117.797-14.238 110.836-7.087 100.78-2.153 87.627-1.622 86.21-1.134 84.746-.659 83.265L47.949 110.814C42.915 121.948 36.591 131.616 28.964 139.807 18.718 150.813 6.385 159.161-8.036 164.854-22.456 170.545-38.525 173.393-56.231 173.393-78.999 173.393-99.433 168.519-117.518 158.783-135.609 149.039-149.839 134.495-160.21 115.141-170.586 95.787-175.769 71.309-175.769 41.709-175.769 20.963-173.053 2.557-167.61-13.505-162.173-29.575-154.328-43.105-144.082-54.111-133.835-65.116-121.503-73.464-107.082-79.157-92.661-84.849-76.343-87.695-58.128-87.695-40.168-87.695-23.85-84.907-9.174-79.346 5.496-73.785 18.083-65.494 28.585-54.49 36.014-46.7 42.185-37.585 47.146-27.195Z" fill="#f3f3f1"/>
</g>
</g>
</g>
</svg>
